<?xml version="1.0" encoding="utf-8"?>
<!-- Generator: Adobe Illustrator 21.1.0, SVG Export Plug-In . SVG Version: 6.00 Build 0)  -->
<svg version="1.1" id="Layer_1" xmlns="http://www.w3.org/2000/svg" xmlns:xlink="http://www.w3.org/1999/xlink" x="0px" y="0px"
	 viewBox="0 0 881.1 844.9" style="enable-background:new 0 0 881.1 844.9;" xml:space="preserve">
<style type="text/css">
	.st0{fill:#C3DEE4;}
</style>
<g id="flux_1_">
	<g>
		<g>
			<path class="st0" d="M272.6,160.8c-34.2-42.5-27.5-104.8,15-139c42.5-34.2,104.8-27.5,139,15c34.2,42.5,27.5,104.8-15,139
				C369.1,210,306.8,203.2,272.6,160.8z M407.7,52c-25.8-32-72.9-37.1-104.9-11.3s-37.1,72.9-11.3,104.9
				c25.8,32,72.9,37.1,104.9,11.3S433.5,84.1,407.7,52z"/>
		</g>
		<g>
			<path class="st0" d="M705.3,698.2c-34.2-42.5-27.5-104.8,15-139c42.5-34.2,104.8-27.5,139,15c34.2,42.5,27.5,104.8-15,139
				C801.8,747.4,739.5,740.7,705.3,698.2z M840.4,589.4c-25.8-32-72.9-37.1-104.9-11.3c-32,25.8-37.1,72.9-11.3,104.9
				c25.8,32,72.9,37.1,104.9,11.3C861.1,668.5,866.2,621.5,840.4,589.4z"/>
		</g>
		<g>
			<path class="st0" d="M21.8,808.1c-34.2-42.5-27.5-104.8,15-139c42.5-34.2,104.8-27.5,139,15c34.2,42.5,27.5,104.8-15,139
				C118.3,857.3,56,850.6,21.8,808.1z M156.9,699.3c-25.8-32-72.9-37.1-104.9-11.3c-32,25.8-37.1,72.9-11.3,104.9
				s72.9,37.1,104.9,11.3C177.6,778.4,182.7,731.4,156.9,699.3z"/>
		</g>
		<g>
			
				<rect x="366.2" y="98" transform="matrix(0.9882 -0.1534 0.1534 0.9882 -41.281 61.5462)" class="st0" width="24.2" height="400.6"/>
		</g>
		<g>
			
				<rect x="584" y="368.2" transform="matrix(0.3614 -0.9324 0.9324 0.3614 -149.7385 919.0115)" class="st0" width="24.2" height="401.2"/>
		</g>
		<g>
			
				<rect x="54.8" y="609.1" transform="matrix(0.7789 -0.6271 0.6271 0.7789 -333.4517 296.5944)" class="st0" width="398.3" height="24.2"/>
		</g>
		<g>
			
				<ellipse transform="matrix(0.7789 -0.6271 0.6271 0.7789 -221.0532 366.6255)" class="st0" cx="409.4" cy="496.8" rx="82.6" ry="82.6"/>
		</g>
		<g>
			
				<ellipse transform="matrix(0.7789 -0.6271 0.6271 0.7789 14.1723 240.1276)" class="st0" cx="347.6" cy="100" rx="34.7" ry="34.7"/>
		</g>
		<g>
			
				<ellipse transform="matrix(0.7789 -0.6271 0.6271 0.7789 -228.9908 633.2194)" class="st0" cx="783.6" cy="641.4" rx="34.7" ry="34.7"/>
		</g>
		<g>
			
				<ellipse transform="matrix(0.7789 -0.6271 0.6271 0.7789 -446.1444 226.6325)" class="st0" cx="98.4" cy="746.1" rx="34.7" ry="34.7"/>
		</g>
	</g>
</g>
</svg>
