<?xml version="1.0" encoding="utf-8"?>
<!-- Generator: Adobe Illustrator 21.1.0, SVG Export Plug-In . SVG Version: 6.00 Build 0)  -->
<svg version="1.1" id="Layer_1" xmlns="http://www.w3.org/2000/svg" xmlns:xlink="http://www.w3.org/1999/xlink" x="0px" y="0px"
	 viewBox="0 0 650.2 659.2" style="enable-background:new 0 0 650.2 659.2;" xml:space="preserve">
<style type="text/css">
	.st0{fill:#C3DEE4;}
</style>
<g id="flux">
	<g>
		<g>
			<path class="st0" d="M95.9,294c-39.5,11.6-81.2-11-92.9-50.6c-11.6-39.5,11-81.2,50.6-92.9c39.5-11.6,81.2,11,92.9,50.6
				C158.2,240.7,135.5,282.3,95.9,294z M58.8,168.1c-29.9,8.8-47,40.2-38.2,70.1s40.2,47,70.1,38.2s47-40.2,38.2-70.1
				S88.7,159.3,58.8,168.1z"/>
		</g>
		<g>
			<path class="st0" d="M596.6,146.5c-39.5,11.6-81.2-11-92.9-50.6c-11.6-39.5,11-81.2,50.6-92.9c39.5-11.6,81.2,11,92.9,50.6
				C658.8,93.2,636.1,134.9,596.6,146.5z M559.5,20.6c-29.9,8.8-47,40.2-38.2,70.1s40.2,47,70.1,38.2c29.9-8.8,47-40.2,38.2-70.1
				S589.3,11.8,559.5,20.6z"/>
		</g>
		<g>
			<path class="st0" d="M476.2,656.2c-39.5,11.6-81.2-11-92.9-50.6c-11.6-39.5,11-81.2,50.6-92.9c39.5-11.6,81.2,11,92.9,50.6
				C538.4,602.8,515.7,644.5,476.2,656.2z M439.1,530.3c-29.9,8.8-47,40.2-38.2,70.1s40.2,47,70.1,38.2c29.9-8.8,47-40.2,38.2-70.1
				S468.9,521.5,439.1,530.3z"/>
		</g>
		<g>
			
				<rect x="213.4" y="108.2" transform="matrix(0.2352 -0.9719 0.9719 0.2352 -82.2276 415.0208)" class="st0" width="18.3" height="303.1"/>
		</g>
		<g>
			
				<rect x="322.8" y="176.4" transform="matrix(0.6898 -0.724 0.724 0.6898 12.8708 401.1323)" class="st0" width="303.5" height="18.3"/>
		</g>
		<g>
			
				<rect x="403.3" y="289.3" transform="matrix(0.9593 -0.2826 0.2826 0.9593 -107.4936 134.469)" class="st0" width="18.3" height="301.3"/>
		</g>
		<g>
			
				<ellipse transform="matrix(0.9593 -0.2826 0.2826 0.9593 -68.3387 116.6793)" class="st0" cx="370.4" cy="295.3" rx="62.5" ry="62.5"/>
		</g>
		<g>
			<ellipse transform="matrix(0.9593 -0.2826 0.2826 0.9593 -60.2213 30.325)" class="st0" cx="75" cy="224" rx="26.2" ry="26.2"/>
		</g>
		<g>
			
				<ellipse transform="matrix(0.9593 -0.2826 0.2826 0.9593 2.311 166.7867)" class="st0" cx="579.4" cy="75.4" rx="26.2" ry="26.2"/>
		</g>
		<g>
			
				<ellipse transform="matrix(0.9593 -0.2826 0.2826 0.9593 -146.6828 152.3508)" class="st0" cx="454.9" cy="584.7" rx="26.2" ry="26.2"/>
		</g>
	</g>
</g>
</svg>
