<?xml version="1.0" encoding="utf-8"?>
<!-- Generator: Adobe Illustrator 21.1.0, SVG Export Plug-In . SVG Version: 6.00 Build 0)  -->
<svg version="1.1" id="Layer_1" xmlns="http://www.w3.org/2000/svg" xmlns:xlink="http://www.w3.org/1999/xlink" x="0px" y="0px"
	 viewBox="0 0 588.1 621.8" style="enable-background:new 0 0 588.1 621.8;" xml:space="preserve">
<style type="text/css">
	.st0{fill:#C3DEE4;}
</style>
<g id="flux_2_">
	<g>
		<g>
			<path class="st0" d="M111.3,416.8c-30.6,23-74.3,16.9-97.3-13.7c-23-30.6-16.9-74.3,13.7-97.3c30.6-23,74.3-16.9,97.3,13.7
				C148.1,350,141.9,393.7,111.3,416.8z M37.9,319.3c-23.1,17.4-27.8,50.4-10.4,73.5c17.4,23.1,50.4,27.8,73.5,10.4
				s27.8-50.4,10.4-73.5C94,306.6,61,301.9,37.9,319.3z"/>
		</g>
		<g>
			<path class="st0" d="M498.9,125c-30.6,23-74.3,16.9-97.3-13.7c-23-30.6-16.9-74.3,13.7-97.3c30.6-23,74.3-16.9,97.3,13.7
				C535.7,58.3,529.5,102,498.9,125z M425.5,27.6C402.4,45,397.8,77.9,415.2,101c17.4,23.1,50.4,27.8,73.5,10.4
				C511.8,94,516.4,61,499,37.9S448.7,10.2,425.5,27.6z"/>
		</g>
		<g>
			<path class="st0" d="M560.4,607.9c-30.6,23-74.3,16.9-97.3-13.7c-23-30.6-16.9-74.3,13.7-97.3c30.6-23,74.3-16.9,97.3,13.7
				S591,584.8,560.4,607.9z M487.1,510.4c-23.1,17.4-27.8,50.4-10.4,73.5c17.4,23.1,50.4,27.8,73.5,10.4
				c23.1-17.4,27.8-50.4,10.4-73.5C543.1,497.7,510.2,493,487.1,510.4z"/>
		</g>
		<g>
			
				<rect x="69.5" y="337.1" transform="matrix(0.9927 -0.121 0.121 0.9927 -40.274 27.9953)" class="st0" width="281.7" height="17"/>
		</g>
		<g>
			
				<rect x="264.4" y="190.3" transform="matrix(0.3917 -0.9201 0.9201 0.3917 63.7225 493.9861)" class="st0" width="282.1" height="17"/>
		</g>
		<g>
			
				<rect x="425.9" y="300.4" transform="matrix(0.799 -0.6014 0.6014 0.799 -177.5512 349.7906)" class="st0" width="17" height="280.1"/>
		</g>
		<g>
			
				<ellipse transform="matrix(0.799 -0.6014 0.6014 0.799 -126.962 276.8202)" class="st0" cx="350.6" cy="328.3" rx="58.1" ry="58.1"/>
		</g>
		<g>
			
				<ellipse transform="matrix(0.799 -0.6014 0.6014 0.799 -203.9493 115.1416)" class="st0" cx="70.2" cy="362.6" rx="24.4" ry="24.4"/>
		</g>
		<g>
			
				<ellipse transform="matrix(0.799 -0.6014 0.6014 0.799 51.3082 290.8909)" class="st0" cx="460.7" cy="68.7" rx="24.4" ry="24.4"/>
		</g>
		<g>
			
				<ellipse transform="matrix(0.799 -0.6014 0.6014 0.799 -228.1037 422.9603)" class="st0" cx="518.6" cy="552.7" rx="24.4" ry="24.4"/>
		</g>
	</g>
</g>
</svg>
