<?xml version="1.0" encoding="utf-8"?>
<!-- Generator: Adobe Illustrator 21.1.0, SVG Export Plug-In . SVG Version: 6.00 Build 0)  -->
<svg version="1.1" id="Layer_1" xmlns="http://www.w3.org/2000/svg" xmlns:xlink="http://www.w3.org/1999/xlink" x="0px" y="0px"
	 viewBox="0 0 868.8 1098" style="enable-background:new 0 0 868.8 1098;" xml:space="preserve">
<style type="text/css">
	.st0{opacity:0.25;}
	.st1{fill:#A7B76C;}
	.st2{fill:#306079;}
	.st3{fill:#5A9793;}
	.st4{fill:#C3DEE4;}
	.st5{fill:none;stroke:#306079;stroke-width:3;stroke-miterlimit:10;}
	.st6{fill:#DCECEF;}
</style>
<g class="st0">
	<g>
		<path class="st1" d="M99.8,218.6v-42H62.6v42H37.8v-42H0v-24.8h37.8v-37.2H0V89.9h37.8v-42h24.8v42h37.2v-42h24.8v42h37.8v24.8
			h-37.8v37.2h37.8v24.8h-37.8v42H99.8z M99.8,114.7H62.6v37.2h37.2V114.7z"/>
		<path class="st1" d="M227.8,218.6v-42h-37.2v42h-24.8v-42H128v-24.8h37.8v-37.2H128V89.9h37.8v-42h24.8v42h37.2v-42h24.8v42h37.8
			v24.8h-37.8v37.2h37.8v24.8h-37.8v42H227.8z M227.8,114.7h-37.2v37.2h37.2V114.7z"/>
		<path class="st1" d="M355.8,218.6v-42h-37.2v42h-24.8v-42H256v-24.8h37.8v-37.2H256V89.9h37.8v-42h24.8v42h37.2v-42h24.8v42h37.8
			v24.8h-37.8v37.2h37.8v24.8h-37.8v42H355.8z M355.8,114.7h-37.2v37.2h37.2V114.7z"/>
		<path class="st1" d="M483.7,218.6v-42h-37.2v42h-24.8v-42H384v-24.8h37.8v-37.2H384V89.9h37.8v-42h24.8v42h37.2v-42h24.8v42h37.8
			v24.8h-37.8v37.2h37.8v24.8h-37.8v42H483.7z M483.7,114.7h-37.2v37.2h37.2V114.7z"/>
		<path class="st1" d="M611.7,218.6v-42h-37.2v42h-24.8v-42H512v-24.8h37.8v-37.2H512V89.9h37.8v-42h24.8v42h37.2v-42h24.8v42h37.8
			v24.8h-37.8v37.2h37.8v24.8h-37.8v42H611.7z M611.7,114.7h-37.2v37.2h37.2V114.7z"/>
		<path class="st1" d="M739.7,218.6v-42h-37.2v42h-24.8v-42h-37.8v-24.8h37.8v-37.2h-37.8V89.9h37.8v-42h24.8v42h37.2v-42h24.8v42
			h37.8v24.8h-37.8v37.2h37.8v24.8h-37.8v42H739.7z M739.7,114.7h-37.2v37.2h37.2V114.7z"/>
	</g>
</g>
<g class="st0">
	<g>
		<path class="st1" d="M99.8,347.6v-42H62.6v42H37.8v-42H0v-24.8h37.8v-37.2H0v-24.8h37.8v-42h24.8v42h37.2v-42h24.8v42h37.8v24.8
			h-37.8v37.2h37.8v24.8h-37.8v42H99.8z M99.8,243.7H62.6v37.2h37.2V243.7z"/>
		<path class="st1" d="M227.8,347.6v-42h-37.2v42h-24.8v-42H128v-24.8h37.8v-37.2H128v-24.8h37.8v-42h24.8v42h37.2v-42h24.8v42h37.8
			v24.8h-37.8v37.2h37.8v24.8h-37.8v42H227.8z M227.8,243.7h-37.2v37.2h37.2V243.7z"/>
		<path class="st1" d="M355.8,347.6v-42h-37.2v42h-24.8v-42H256v-24.8h37.8v-37.2H256v-24.8h37.8v-42h24.8v42h37.2v-42h24.8v42h37.8
			v24.8h-37.8v37.2h37.8v24.8h-37.8v42H355.8z M355.8,243.7h-37.2v37.2h37.2V243.7z"/>
		<path class="st1" d="M483.7,347.6v-42h-37.2v42h-24.8v-42H384v-24.8h37.8v-37.2H384v-24.8h37.8v-42h24.8v42h37.2v-42h24.8v42h37.8
			v24.8h-37.8v37.2h37.8v24.8h-37.8v42H483.7z M483.7,243.7h-37.2v37.2h37.2V243.7z"/>
		<path class="st1" d="M611.7,347.6v-42h-37.2v42h-24.8v-42H512v-24.8h37.8v-37.2H512v-24.8h37.8v-42h24.8v42h37.2v-42h24.8v42h37.8
			v24.8h-37.8v37.2h37.8v24.8h-37.8v42H611.7z M611.7,243.7h-37.2v37.2h37.2V243.7z"/>
		<path class="st1" d="M739.7,347.6v-42h-37.2v42h-24.8v-42h-37.8v-24.8h37.8v-37.2h-37.8v-24.8h37.8v-42h24.8v42h37.2v-42h24.8v42
			h37.8v24.8h-37.8v37.2h37.8v24.8h-37.8v42H739.7z M739.7,243.7h-37.2v37.2h37.2V243.7z"/>
	</g>
</g>
<g class="st0">
	<g>
		<path class="st1" d="M99.8,413.6v-42H62.6v42H37.8v-42H0v-24.8h37.8v-37.2H0v-24.8h37.8v-42h24.8v42h37.2v-42h24.8v42h37.8v24.8
			h-37.8v37.2h37.8v24.8h-37.8v42H99.8z M99.8,309.7H62.6v37.2h37.2V309.7z"/>
		<path class="st1" d="M227.8,413.6v-42h-37.2v42h-24.8v-42H128v-24.8h37.8v-37.2H128v-24.8h37.8v-42h24.8v42h37.2v-42h24.8v42h37.8
			v24.8h-37.8v37.2h37.8v24.8h-37.8v42H227.8z M227.8,309.7h-37.2v37.2h37.2V309.7z"/>
		<path class="st1" d="M355.8,413.6v-42h-37.2v42h-24.8v-42H256v-24.8h37.8v-37.2H256v-24.8h37.8v-42h24.8v42h37.2v-42h24.8v42h37.8
			v24.8h-37.8v37.2h37.8v24.8h-37.8v42H355.8z M355.8,309.7h-37.2v37.2h37.2V309.7z"/>
		<path class="st1" d="M483.7,413.6v-42h-37.2v42h-24.8v-42H384v-24.8h37.8v-37.2H384v-24.8h37.8v-42h24.8v42h37.2v-42h24.8v42h37.8
			v24.8h-37.8v37.2h37.8v24.8h-37.8v42H483.7z M483.7,309.7h-37.2v37.2h37.2V309.7z"/>
		<path class="st1" d="M611.7,413.6v-42h-37.2v42h-24.8v-42H512v-24.8h37.8v-37.2H512v-24.8h37.8v-42h24.8v42h37.2v-42h24.8v42h37.8
			v24.8h-37.8v37.2h37.8v24.8h-37.8v42H611.7z M611.7,309.7h-37.2v37.2h37.2V309.7z"/>
		<path class="st1" d="M739.7,413.6v-42h-37.2v42h-24.8v-42h-37.8v-24.8h37.8v-37.2h-37.8v-24.8h37.8v-42h24.8v42h37.2v-42h24.8v42
			h37.8v24.8h-37.8v37.2h37.8v24.8h-37.8v42H739.7z M739.7,309.7h-37.2v37.2h37.2V309.7z"/>
	</g>
</g>
<g class="st0">
	<g>
		<path class="st1" d="M99.8,517.6v-42H62.6v42H37.8v-42H0v-24.8h37.8v-37.2H0v-24.8h37.8v-42h24.8v42h37.2v-42h24.8v42h37.8v24.8
			h-37.8v37.2h37.8v24.8h-37.8v42H99.8z M99.8,413.7H62.6v37.2h37.2V413.7z"/>
		<path class="st1" d="M227.8,517.6v-42h-37.2v42h-24.8v-42H128v-24.8h37.8v-37.2H128v-24.8h37.8v-42h24.8v42h37.2v-42h24.8v42h37.8
			v24.8h-37.8v37.2h37.8v24.8h-37.8v42H227.8z M227.8,413.7h-37.2v37.2h37.2V413.7z"/>
		<path class="st1" d="M355.8,517.6v-42h-37.2v42h-24.8v-42H256v-24.8h37.8v-37.2H256v-24.8h37.8v-42h24.8v42h37.2v-42h24.8v42h37.8
			v24.8h-37.8v37.2h37.8v24.8h-37.8v42H355.8z M355.8,413.7h-37.2v37.2h37.2V413.7z"/>
		<path class="st1" d="M483.7,517.6v-42h-37.2v42h-24.8v-42H384v-24.8h37.8v-37.2H384v-24.8h37.8v-42h24.8v42h37.2v-42h24.8v42h37.8
			v24.8h-37.8v37.2h37.8v24.8h-37.8v42H483.7z M483.7,413.7h-37.2v37.2h37.2V413.7z"/>
		<path class="st1" d="M611.7,517.6v-42h-37.2v42h-24.8v-42H512v-24.8h37.8v-37.2H512v-24.8h37.8v-42h24.8v42h37.2v-42h24.8v42h37.8
			v24.8h-37.8v37.2h37.8v24.8h-37.8v42H611.7z M611.7,413.7h-37.2v37.2h37.2V413.7z"/>
		<path class="st1" d="M739.7,517.6v-42h-37.2v42h-24.8v-42h-37.8v-24.8h37.8v-37.2h-37.8v-24.8h37.8v-42h24.8v42h37.2v-42h24.8v42
			h37.8v24.8h-37.8v37.2h37.8v24.8h-37.8v42H739.7z M739.7,413.7h-37.2v37.2h37.2V413.7z"/>
	</g>
</g>
<g class="st0">
	<g>
		<path class="st1" d="M99.8,584.6v-42H62.6v42H37.8v-42H0v-24.8h37.8v-37.2H0v-24.8h37.8v-42h24.8v42h37.2v-42h24.8v42h37.8v24.8
			h-37.8v37.2h37.8v24.8h-37.8v42H99.8z M99.8,480.7H62.6v37.2h37.2V480.7z"/>
		<path class="st1" d="M227.8,584.6v-42h-37.2v42h-24.8v-42H128v-24.8h37.8v-37.2H128v-24.8h37.8v-42h24.8v42h37.2v-42h24.8v42h37.8
			v24.8h-37.8v37.2h37.8v24.8h-37.8v42H227.8z M227.8,480.7h-37.2v37.2h37.2V480.7z"/>
		<path class="st1" d="M355.8,584.6v-42h-37.2v42h-24.8v-42H256v-24.8h37.8v-37.2H256v-24.8h37.8v-42h24.8v42h37.2v-42h24.8v42h37.8
			v24.8h-37.8v37.2h37.8v24.8h-37.8v42H355.8z M355.8,480.7h-37.2v37.2h37.2V480.7z"/>
		<path class="st1" d="M483.7,584.6v-42h-37.2v42h-24.8v-42H384v-24.8h37.8v-37.2H384v-24.8h37.8v-42h24.8v42h37.2v-42h24.8v42h37.8
			v24.8h-37.8v37.2h37.8v24.8h-37.8v42H483.7z M483.7,480.7h-37.2v37.2h37.2V480.7z"/>
		<path class="st1" d="M611.7,584.6v-42h-37.2v42h-24.8v-42H512v-24.8h37.8v-37.2H512v-24.8h37.8v-42h24.8v42h37.2v-42h24.8v42h37.8
			v24.8h-37.8v37.2h37.8v24.8h-37.8v42H611.7z M611.7,480.7h-37.2v37.2h37.2V480.7z"/>
	</g>
</g>
<g class="st0">
	<g>
		<path class="st1" d="M99.8,712.6v-42H62.6v42H37.8v-42H0v-24.8h37.8v-37.2H0v-24.8h37.8v-42h24.8v42h37.2v-42h24.8v42h37.8v24.8
			h-37.8v37.2h37.8v24.8h-37.8v42H99.8z M99.8,608.7H62.6v37.2h37.2V608.7z"/>
		<path class="st1" d="M227.8,712.6v-42h-37.2v42h-24.8v-42H128v-24.8h37.8v-37.2H128v-24.8h37.8v-42h24.8v42h37.2v-42h24.8v42h37.8
			v24.8h-37.8v37.2h37.8v24.8h-37.8v42H227.8z M227.8,608.7h-37.2v37.2h37.2V608.7z"/>
		<path class="st1" d="M355.8,712.6v-42h-37.2v42h-24.8v-42H256v-24.8h37.8v-37.2H256v-24.8h37.8v-42h24.8v42h37.2v-42h24.8v42h37.8
			v24.8h-37.8v37.2h37.8v24.8h-37.8v42H355.8z M355.8,608.7h-37.2v37.2h37.2V608.7z"/>
	</g>
</g>
<g class="st0">
	<g>
		<path class="st1" d="M228.8,712.6v-42h-37.2v42h-24.8v-42H129v-24.8h37.8v-37.2H129v-24.8h37.8v-42h24.8v42h37.2v-42h24.8v42h37.8
			v24.8h-37.8v37.2h37.8v24.8h-37.8v42H228.8z M228.8,608.7h-37.2v37.2h37.2V608.7z"/>
		<path class="st1" d="M356.8,712.6v-42h-37.2v42h-24.8v-42H257v-24.8h37.8v-37.2H257v-24.8h37.8v-42h24.8v42h37.2v-42h24.8v42h37.8
			v24.8h-37.8v37.2h37.8v24.8h-37.8v42H356.8z M356.8,608.7h-37.2v37.2h37.2V608.7z"/>
		<path class="st1" d="M484.8,712.6v-42h-37.2v42h-24.8v-42H385v-24.8h37.8v-37.2H385v-24.8h37.8v-42h24.8v42h37.2v-42h24.8v42h37.8
			v24.8h-37.8v37.2h37.8v24.8h-37.8v42H484.8z M484.8,608.7h-37.2v37.2h37.2V608.7z"/>
	</g>
</g>
<g class="st0">
	<g>
		<path class="st1" d="M99.8,846.6v-42H62.6v42H37.8v-42H0v-24.8h37.8v-37.2H0v-24.8h37.8v-42h24.8v42h37.2v-42h24.8v42h37.8v24.8
			h-37.8v37.2h37.8v24.8h-37.8v42H99.8z M99.8,742.7H62.6v37.2h37.2V742.7z"/>
		<path class="st1" d="M227.8,846.6v-42h-37.2v42h-24.8v-42H128v-24.8h37.8v-37.2H128v-24.8h37.8v-42h24.8v42h37.2v-42h24.8v42h37.8
			v24.8h-37.8v37.2h37.8v24.8h-37.8v42H227.8z M227.8,742.7h-37.2v37.2h37.2V742.7z"/>
	</g>
</g>
<g class="st0">
	<g>
		<path class="st1" d="M99.8,973.6v-42H62.6v42H37.8v-42H0v-24.8h37.8v-37.2H0v-24.8h37.8v-42h24.8v42h37.2v-42h24.8v42h37.8v24.8
			h-37.8v37.2h37.8v24.8h-37.8v42H99.8z M99.8,869.7H62.6v37.2h37.2V869.7z"/>
	</g>
</g>
<g id="ROCKET_2_">
	<g id="back_color_2_">
		<path class="st2" d="M651.3,813C512.5,931.2,366,987,354,972.9c-12-14.1,66.5-149.8,205.2-268s284-175.5,297.3-159.9
			C867.2,557.6,790.1,694.9,651.3,813z"/>
		<path class="st2" d="M484.9,925.7c0,0,16.1,14,38.5,20.3c29.3,8.2,51.7,0.8,51.7,0.8s-68.3,68-106.5,91.5
			c-30.4,18.8-78.9,43-93.3,48.1c-14.4,5.1-23.9,8.7-23.9,8.7s63.7-40.8,85-83.1c21.3-42.3,7.3-63.8,7.3-63.8L484.9,925.7z"/>
		<path class="st2" d="M420.8,850.4c0,0-11.3-18.2-13.9-41.2c-3.4-30.2,7.5-51.1,7.5-51.1s-78,56.6-107.3,90.5
			c-23.4,27.1-55,71-62.4,84.4c-7.4,13.4-12.4,22.2-12.4,22.2s50.5-56.4,95.6-70.7c45.1-14.3,64.2,2.9,64.2,2.9L420.8,850.4z"/>
	</g>
	<g id="front_2_">
		<path class="st3" d="M654.9,803.4c-138.8,118.2-285.3,174-297.3,159.9c-12-14.1,66.5-149.8,205.2-268s284-175.5,297.3-159.9
			C870.8,547.9,793.7,685.2,654.9,803.4z"/>
		<path class="st3" d="M487.8,915.3c0,0,16.1,14,38.5,20.3c29.3,8.2,51.7,0.8,51.7,0.8s-68.3,68-106.5,91.5
			c-30.4,18.8-78.9,43-93.3,48.1c-14.4,5.1-23.9,8.7-23.9,8.7s63.7-40.8,85-83.1c21.3-42.3,7.3-63.8,7.3-63.8L487.8,915.3z"/>
		<path class="st3" d="M425.7,842.3c0,0-11.3-18.2-13.9-41.2c-3.4-30.2,7.5-51.1,7.5-51.1s-78,56.6-107.3,90.5
			c-23.4,27.1-55,71-62.4,84.4c-7.4,13.4-12.4,22.2-12.4,22.2s50.5-56.4,95.6-70.7s64.2,2.9,64.2,2.9L425.7,842.3z"/>
		
			<ellipse transform="matrix(0.7614 -0.6483 0.6483 0.7614 -235.7491 632.5304)" class="st4" cx="741.4" cy="636.5" rx="39.5" ry="39.5"/>
		<path class="st5" d="M417.6,878.7c0,0,55.9-82.4,157.6-169s104.2-78.9,104.2-78.9"/>
		<g>
			<g>
				<path class="st6" d="M765.2,658.8c-8.9,5.2-18.5,6.5-28.5,4.1c-9.5-2.3-16.6-9.3-21.8-17.3c-1.1-1.6-3.7-0.1-2.6,1.5
					c5.6,8.6,13.3,16.1,23.6,18.7c10.7,2.6,21.3,1.2,30.8-4.4C768.4,660.4,766.9,657.8,765.2,658.8L765.2,658.8z"/>
			</g>
		</g>
	</g>
</g>
</svg>
