<?xml version="1.0" encoding="utf-8"?>
<!-- Generator: Adobe Illustrator 21.1.0, SVG Export Plug-In . SVG Version: 6.00 Build 0)  -->
<svg version="1.1" id="Layer_1" xmlns="http://www.w3.org/2000/svg" xmlns:xlink="http://www.w3.org/1999/xlink" x="0px" y="0px"
	 viewBox="0 0 816 957" style="enable-background:new 0 0 816 957;" xml:space="preserve">
<style type="text/css">
	.st0{opacity:0.25;}
	.st1{fill:#A7B76C;}
	.st2{font-family:'SpaceMono-Regular';}
	.st3{font-size:344.0579px;}
	.st4{letter-spacing:-82;}
	.st5{opacity:0.5;}
</style>
<g class="st0">
	<text transform="matrix(1 0 0 1 -20.9297 213.6846)"><tspan x="0" y="0" class="st1 st2 st3 st4">#####</tspan><tspan x="639.9" y="0" class="st1 st2 st3">#</tspan></text>
</g>
<g class="st5">
</g>
<g class="st0">
	<text transform="matrix(1 0 0 1 -20.9297 342.6846)"><tspan x="0" y="0" class="st1 st2 st3 st4">#####</tspan><tspan x="639.9" y="0" class="st1 st2 st3">#</tspan></text>
</g>
<g class="st0">
	<text transform="matrix(1 0 0 1 -20.9297 408.6846)"><tspan x="0" y="0" class="st1 st2 st3 st4">#####</tspan><tspan x="639.9" y="0" class="st1 st2 st3">#</tspan></text>
</g>
<g class="st0">
	<text transform="matrix(1 0 0 1 -20.9297 512.6846)"><tspan x="0" y="0" class="st1 st2 st3 st4">#####</tspan><tspan x="639.9" y="0" class="st1 st2 st3">#</tspan></text>
</g>
<g class="st0">
	<text transform="matrix(1 0 0 1 -20.9297 579.6846)" class="st1 st2 st3 st4">#####</text>
</g>
<g class="st0">
	<text transform="matrix(1 0 0 1 -20.9297 707.6846)" class="st1 st2 st3 st4">###</text>
</g>
<g class="st0">
	<text transform="matrix(1 0 0 1 108.0703 707.6846)" class="st1 st2 st3 st4">###</text>
</g>
<g class="st0">
	<text transform="matrix(1 0 0 1 -20.9297 841.6846)" class="st1 st2 st3 st4">##</text>
</g>
<g class="st0">
	<text transform="matrix(1 0 0 1 -20.9297 968.6846)" class="st1 st2 st3 st4">#</text>
</g>
</svg>
