<?xml version="1.0" encoding="utf-8"?>
<!-- Generator: Adobe Illustrator 21.1.0, SVG Export Plug-In . SVG Version: 6.00 Build 0)  -->
<svg version="1.1" id="Layer_1" xmlns="http://www.w3.org/2000/svg" xmlns:xlink="http://www.w3.org/1999/xlink" x="0px" y="0px"
	 viewBox="0 0 1927 1274" style="enable-background:new 0 0 1927 1274;" xml:space="preserve">
<style type="text/css">
	.st0{fill:#30607A;}
	.st1{fill:#242733;}
	.st2{fill:#099EAE;}
	.st3{fill:none;stroke:#30607A;stroke-width:7;stroke-miterlimit:10;}
</style>
<path class="st0" d="M1577.2,821.2l103.3,369.6c0,0,58.5,66,138.1,28.6c79.7-37.3,88.4-109.5,88.4-109.5l-179.2-359.7
	c0,0-42.3-33.6-53.5-38.6c-11.2-5-52.3-49.8-17.4-67.2c34.8-17.4,129.4-56,129.4-56l-12.4-56l53.5-44.8h32.4l11.2-52.3l-17.4-61
	h-32.4c0,0-42.3-59.7-144.4-94.6c-102.1-34.8-222.8-52.3-222.8-52.3s-26.1-51,0-62.2c26.1-11.2,182.9-24.9,200.4-28.6
	c17.4-3.7,80.9-21.2-12.4-38.6S1369.4,59.5,1263.6,67S928.8,91.8,898.9,98.1c-29.9,6.2-98.3,29.9-62.2,49.8
	c36.1,19.9,225.1,13.9,237.7,14.9c62.2,5,56,64.7,56,64.7s-26.7-5.6-131.9,14.9C896.4,262.4,887.7,281,887.7,281l-1.2,75.9
	l-28.6,22.4l-3.7-32.4l-43.6,18.7V347L772,365.6V347l-56,29.9v13.7l-262.6-1.2l-23.6-17.4h-29.9l-7.5-17.4L314,330.8l-38.6-51
	l-59.7,1.2l-87.1,19.9l-13.7,26.1l103.3,1.2v39.8l-41.1-24.9v18.7L146,339.5v17.4L114.8,337v185.4l29.9-18.7V520l31.1-19.9l1.2,22.4
	l41.1-26.1l14.9-1.2l19.9,17.4h145.6l17.4-13.7l13.7-1.2l22.4-19.9l263.8,1.2l1.2,23.6l49.8,21.2v-17.4l44.8,17.4l1.2-16.2
	l42.3,17.4l1.2-41.1c0,0,26.1,28.6,34.8,33.6s29.9,16.2,29.9,16.2l1.2,44.8l31.1,1.2l-1.2-34.8l26.1,10l1.2,47.3h31.1v-43.6
	l33.6,7.5v46l34.8,2.5l1.2-42.3l31.1,6.2v42.3l37.3,3.7v-36.1l17.4,5v54.8h90.9v53.5l17.4-1.2c0,0-2.5,69.7,2.5,77.2
	c5,7.5,12.4,33.6,53.5,43.6C1371.8,831.1,1577.2,821.2,1577.2,821.2z"/>
<path class="st1" d="M1527.4,795.5l101.5,363.1c0,0,57.5,64.8,135.7,28.1c78.2-36.7,86.8-107.6,86.8-107.6l-176-353.3
	c0,0-41.6-33-52.6-37.9c-11-4.9-51.3-48.9-17.1-66c34.2-17.1,127.1-55,127.1-55l-12.2-55l52.6-44h31.8l11-51.3l-17.1-59.9H1767
	c0,0-41.6-58.7-141.8-92.9c-100.2-34.2-218.8-51.3-218.8-51.3s-25.7-50.1,0-61.1c25.7-11,179.7-24.4,196.8-28.1
	c17.1-3.7,79.5-20.8-12.2-37.9s-267.7-37.9-371.6-30.6S890.5,79.1,861.2,85.2s-96.6,29.3-61.1,48.9s221.1,13.7,233.5,14.7
	c61.1,4.9,55,63.6,55,63.6s-26.2-5.5-129.6,14.7c-100.2,19.6-108.8,37.9-108.8,37.9l-1.2,74.6l-28.1,22l-3.7-31.8L774.4,348v-18.3
	L736.5,348v-18.3l-55,29.3v13.4l-257.9-1.2l-23.2-17.1h-29.3l-7.3-17.1l-77-23.2l-37.9-50.1l-58.7,1.2l-85.6,19.6L91,310.1
	l101.5,1.2v39.1L152.1,326v18.3l-30.6-22v17.1L91,319.9v182.2l29.3-18.3v15.9l30.6-19.6l1.2,22l40.3-25.7l14.7-1.2l19.6,17.1h143
	l17.1-13.4l13.4-1.2l22-19.6l259.2,1.2l1.2,23.2l48.9,20.8v-17.1l44,17.1l1.2-15.9l41.6,17.1l1.2-40.3c0,0,25.7,28.1,34.2,33
	c8.6,4.9,29.3,15.9,29.3,15.9l1.2,44l30.6,1.2l-1.2-34.2l25.7,9.8l1.2,46.5h30.6v-42.8l33,7.3v45.2l34.2,2.4l1.2-41.6l30.6,6.1v41.6
	l36.7,3.7v-35.5l17.1,4.9v53.8h89.2v52.6l17.1-1.2c0,0-2.4,68.5,2.4,75.8c4.9,7.3,12.2,33,52.6,42.8
	C1325.7,805.3,1527.4,795.5,1527.4,795.5z"/>
<circle class="st0" cx="1368.5" cy="389.6" r="96.6"/>
<path class="st2" d="M1389.3,686.7c7.4,7.4,23.2,66,23.2,66s7.3,11-20.8,11c-28.1,0-73.3,0-73.3,0s-42.8-11-40.3-37.9
	s24.4-45.2,36.7-45.2s61.1,0,61.1,0S1383.2,680.6,1389.3,686.7z"/>
<path class="st2" d="M1426,686.7c-2.4,11,23.2,64.8,23.2,64.8s2.4,6.1,8.6,4.9c6.1-1.2,18.3-7.3,23.2-19.6c4.9-12.2,4.9-26.9,0-35.5
	c-4.9-8.6-19.6-19.6-25.7-20.8s-24.4,0-24.4,0S1426.4,684.8,1426,686.7z"/>
<line class="st3" x1="251.8" y1="401.2" x2="251.8" y2="492.9"/>
<line class="st3" x1="295.8" y1="401.2" x2="295.8" y2="492.9"/>
<line class="st3" x1="342.2" y1="401.2" x2="342.2" y2="492.9"/>
</svg>
