<?xml version="1.0" encoding="utf-8"?>
<!-- Generator: Adobe Illustrator 21.1.0, SVG Export Plug-In . SVG Version: 6.00 Build 0)  -->
<svg version="1.1" id="Layer_1" xmlns="http://www.w3.org/2000/svg" xmlns:xlink="http://www.w3.org/1999/xlink" x="0px" y="0px"
	 viewBox="0 0 628.9 562.2" style="enable-background:new 0 0 628.9 562.2;" xml:space="preserve">
<style type="text/css">
	.st0{fill:#242733;}
	.st1{fill:#306079;}
	.st2{fill:#5A9793;}
	.st3{fill:#C3DEE4;}
	.st4{fill:none;stroke:#306079;stroke-width:3;stroke-miterlimit:10;}
	.st5{fill:#DCECEF;}
</style>
<rect x="0.1" y="-0.3" class="st0" width="629" height="563"/>
<g id="ROCKET_2_">
	<g id="back_color_2_">
		<path class="st1" d="M419.1,280.2C280.3,398.3,133.8,454.1,121.8,440S188.2,290.2,327,172S611-3.4,624.3,12.2
			C635,24.7,557.8,162,419.1,280.2z"/>
		<path class="st1" d="M252.6,392.8c0,0,16.1,14,38.5,20.3c29.3,8.2,51.7,0.8,51.7,0.8s-68.3,68-106.5,91.5
			c-30.4,18.8-78.9,43-93.3,48.1s-23.9,8.7-23.9,8.7s63.7-40.8,85-83.1s7.3-63.8,7.3-63.8L252.6,392.8z"/>
		<path class="st1" d="M188.5,317.5c0,0-11.3-18.2-13.9-41.2c-3.4-30.2,7.5-51.1,7.5-51.1s-78,56.6-107.3,90.5
			c-23.4,27.1-55,71-62.4,84.4S0,422.4,0,422.4s50.5-56.4,95.6-70.7c45.1-14.3,64.2,2.9,64.2,2.9L188.5,317.5z"/>
	</g>
	<g id="front_2_">
		<path class="st2" d="M422.7,270.5c-138.8,118.2-285.3,174-297.3,159.9s66.5-149.8,205.2-268S614.6-13.1,627.9,2.5
			C638.6,15.1,561.4,152.4,422.7,270.5z"/>
		<path class="st2" d="M255.6,382.4c0,0,16.1,14,38.5,20.3c29.3,8.2,51.7,0.8,51.7,0.8s-68.3,68-106.5,91.5
			c-30.4,18.8-78.9,43-93.3,48.1s-23.9,8.7-23.9,8.7s63.7-40.8,85-83.1s7.3-63.8,7.3-63.8L255.6,382.4z"/>
		<path class="st2" d="M193.4,309.4c0,0-11.3-18.2-13.9-41.2c-3.4-30.2,7.5-51.1,7.5-51.1s-78,56.6-107.3,90.5
			c-23.4,27.1-55,71-62.4,84.4S4.9,414.2,4.9,414.2s50.5-56.4,95.6-70.7s64.2,2.9,64.2,2.9L193.4,309.4z"/>
		
			<ellipse transform="matrix(0.7614 -0.6483 0.6483 0.7614 54.2885 354.8074)" class="st3" cx="509.1" cy="103.7" rx="39.5" ry="39.5"/>
		<path class="st4" d="M185.4,345.8c0,0,55.9-82.4,157.6-169S447.2,98,447.2,98"/>
		<g>
			<g>
				<path class="st5" d="M532.9,125.9c-8.9,5.2-18.5,6.5-28.5,4.1c-9.5-2.3-16.6-9.3-21.8-17.3c-1.1-1.6-3.7-0.1-2.6,1.5
					c5.6,8.6,13.3,16.1,23.6,18.7c10.7,2.6,21.3,1.2,30.8-4.4C536.1,127.6,534.6,125,532.9,125.9L532.9,125.9z"/>
			</g>
		</g>
	</g>
</g>
</svg>
