<?xml version="1.0" encoding="utf-8"?>
<!-- Generator: Adobe Illustrator 21.1.0, SVG Export Plug-In . SVG Version: 6.00 Build 0)  -->
<svg version="1.1" id="Layer_1" xmlns="http://www.w3.org/2000/svg" xmlns:xlink="http://www.w3.org/1999/xlink" x="0px" y="0px"
	 viewBox="0 0 613.5 1810.7" style="enable-background:new 0 0 613.5 1810.7;" xml:space="preserve">
<style type="text/css">
	.st0{display:none;}
	.st1{display:inline;}
	.st2{fill:#099EAE;}
	.st3{fill:#5A9793;}
	.st4{fill:#306079;}
	.st5{fill:none;stroke:#C3DEE4;stroke-width:5;stroke-miterlimit:10;}
	.st6{fill:#C3DEE4;}
</style>
<g id="ROCKET_1_">
	<g id="back_color_1_" class="st0">
		<g class="st1">
			<g>
				<path class="st2" d="M448.2,635.2c2.7,351.4-96.3,637-132,637.3c-35.7,0.3-139.1-283.8-141.8-635.2S266.9,0.3,306.4,0
					C338.2-0.2,445.5,283.8,448.2,635.2z"/>
			</g>
			<g>
				<path class="st2" d="M408.5,1020.7c0,0,40.7-6.5,77.6-31.8c48.4-33.2,65.1-75.4,65.1-75.4s15.9,185.2,3.4,270.7
					c-10,68.2-34.2,169.8-44.5,197.5c-10.3,27.7-16.7,46.1-16.7,46.1s18.6-144.7-17.5-228.5c-36.1-83.8-85.3-89.9-85.3-89.9
					L408.5,1020.7z"/>
			</g>
			<g>
				<path class="st2" d="M217.8,1022.2c0,0-40.8-5.8-78.1-30.6c-48.9-32.5-66.3-74.4-66.3-74.4s-13,185.4,0.8,270.7
					c11,68.1,36.8,169.3,47.5,196.8c10.7,27.5,17.4,45.9,17.4,45.9s-20.8-144.4,14-228.8s83.9-91.2,83.9-91.2L217.8,1022.2z"/>
			</g>
		</g>
	</g>
	<g id="front_1_">
		<g>
			<g>
				<path class="st3" d="M475.5,806.1c3.4,443.9-121.7,804.7-166.8,805c-45.1,0.3-175.7-358.5-179.1-802.4
					C126.3,364.9,246.5,4.1,296.4,3.7C336.6,3.4,472.1,362.2,475.5,806.1z"/>
			</g>
			<g>
				<path class="st3" d="M422.9,1293.1c0,0,51.5-8.2,98-40.1c61.1-42,82.3-95.3,82.3-95.3s20.1,233.9,4.3,341.9
					c-12.6,86.2-43.2,214.5-56.2,249.4c-13,35-21.1,58.3-21.1,58.3s23.5-182.8-22.1-288.7c-45.6-105.9-107.7-113.6-107.7-113.6
					L422.9,1293.1z"/>
			</g>
			<g>
				<path class="st3" d="M189.4,1294.9c0,0-51.6-7.4-98.6-38.6c-61.7-41-83.7-94-83.7-94s-16.5,234.2,1,342
					c13.9,86,46.5,213.8,60,248.6s22,57.9,22,57.9s-26.3-182.4,17.7-289s106-115.2,106-115.2L189.4,1294.9z"/>
			</g>
			<g>
				
					<ellipse transform="matrix(1 -7.671150e-03 7.671150e-03 1 -2.9343 2.3075)" class="st4" cx="299.3" cy="383.7" rx="96.2" ry="96.2"/>
			</g>
			<g>
				<path class="st5" d="M244.8,1366.9c0,0-66.3-233.4-68.8-558.5s15.8-318,15.8-318"/>
			</g>
			<g>
				<g>
					<path class="st6" d="M380.3,374.3c-3.9,25.1-17.2,45.8-37.5,60.8c-19.7,14.6-44.8,17.2-68.5,14.2c-1.9-0.2-1.9,2.8,0,3
						c25,3.2,51,0,71.4-15.6c20.2-15.5,33.6-36.3,37.6-61.6C383.5,373.2,380.6,372.4,380.3,374.3L380.3,374.3z"/>
				</g>
			</g>
		</g>
	</g>
</g>
</svg>
