<?xml version="1.0" encoding="utf-8"?>
<!-- Generator: Adobe Illustrator 21.1.0, SVG Export Plug-In . SVG Version: 6.00 Build 0)  -->
<svg version="1.1" id="Layer_1" xmlns="http://www.w3.org/2000/svg" xmlns:xlink="http://www.w3.org/1999/xlink" x="0px" y="0px"
	 viewBox="0 0 2328.5 1206.1" style="enable-background:new 0 0 2328.5 1206.1;" xml:space="preserve">
<style type="text/css">
	.st0{fill:#242733;}
	.st1{fill:#C3DEE4;}
	.st2{fill:#306079;}
	.st3{fill:none;stroke:#DCECEF;stroke-width:8;stroke-miterlimit:10;}
	.st4{fill:none;stroke:#DCECEF;stroke-width:5;stroke-miterlimit:10;}
	.st5{font-family:'SpaceMono-Regular';}
	.st6{font-size:354.1939px;}
	.st7{font-size:226.0071px;}
	.st8{font-size:245.615px;}
	.st9{fill:none;stroke:#C3DEE4;stroke-width:3;stroke-miterlimit:10;}
	.st10{font-size:174px;}
</style>
<rect x="0.4" y="-0.5" class="st0" width="2328" height="1207"/>
<path class="st1" d="M254.9,516.8c0,0,85.4-147.1,113.9-196.2c0.4-0.8,1.2-1.3,2-1.5l460.1-103.6c3.6-0.8,5.4,4.1,2.1,5.8L259,521.1
	C256.2,522.6,253.3,519.5,254.9,516.8z"/>
<path class="st1" d="M1916.6,549.1c0,0-156.7,49.7-208.9,66.3c-0.8,0.3-1.7,0.2-2.6-0.1l-453.6-182.4c-3.5-1.4-2.3-5.6,1.5-4.9
	L1915.5,544C1918.7,544.6,1919.5,548.2,1916.6,549.1z"/>
<path class="st1" d="M1141.2,493l-87.3,124c0,0,451.9,41.9,451,42c-292.4,16.5-1035,170-1035,170c-3.7,0.6-3.6,1.3,0,0l667.8-339.8
	C1140.7,488.1,1143.2,490.8,1141.2,493z"/>
<path class="st2" d="M258.9,521.8c0,0,85.4-147.1,113.9-196.2c0.4-0.8,1.2-1.3,2-1.5l460.1-103.6c3.6-0.8,5.4,4.1,2.1,5.8L263,526.1
	C260.2,527.6,257.3,524.5,258.9,521.8z"/>
<path class="st2" d="M1915.6,540.1c0,0-156.7,49.7-208.9,66.3c-0.8,0.3-1.7,0.2-2.6-0.1l-453.6-182.4c-3.5-1.4-2.3-5.6,1.5-4.9
	L1914.5,535C1917.7,535.6,1918.5,539.2,1915.6,540.1z"/>
<ellipse class="st3" cx="306.2" cy="764.4" rx="302.2" ry="261.8"/>
<path class="st2" d="M1132.2,488l-87.3,124c0,0,451.9,41.9,451,42c-292.4,16.5-1035,170-1035,170c-3.7,0.6-3.6,1.3,0,0l667.8-339.8
	C1131.7,483.1,1134.2,485.8,1132.2,488z"/>
<ellipse class="st4" cx="1724.6" cy="665.6" rx="601.4" ry="538"/>
<ellipse class="st4" cx="1724.9" cy="578.5" rx="545.6" ry="488"/>
<g>
	<text transform="matrix(1.1055 0 0 1 1179.8387 301.0618)" class="st1 st5 st6">.</text>
</g>
<g>
	<text transform="matrix(1 0 0 1 1407.5712 1066.2886)" class="st1 st5 st7">.</text>
</g>
<g>
	<text transform="matrix(1 0 0 1 467.5712 696.937)" class="st1 st5 st8">.</text>
</g>
<g id="atom">
	<ellipse class="st9" cx="1795.4" cy="819.5" rx="122.5" ry="32.5"/>
	
		<ellipse transform="matrix(0.7071 -0.7071 0.7071 0.7071 -53.6172 1509.5568)" class="st9" cx="1795.4" cy="819.5" rx="122.5" ry="32.5"/>
	
		<ellipse transform="matrix(0.7071 -0.7071 0.7071 0.7071 -53.6172 1509.5568)" class="st9" cx="1795.4" cy="819.5" rx="32.5" ry="122.5"/>
	<ellipse class="st9" cx="1795.4" cy="819.5" rx="32.5" ry="122.5"/>
</g>
<g id="atom_1_">
	
		<ellipse transform="matrix(0.3144 -0.9493 0.9493 0.3144 -52.6895 508.0431)" class="st9" cx="325.4" cy="290.5" rx="24.8" ry="93.5"/>
	
		<ellipse transform="matrix(0.8936 -0.4489 0.4489 0.8936 -95.7795 176.9853)" class="st9" cx="325.4" cy="290.5" rx="93.5" ry="24.8"/>
	
		<ellipse transform="matrix(0.8936 -0.4489 0.4489 0.8936 -95.7795 176.9853)" class="st9" cx="325.4" cy="290.5" rx="24.8" ry="93.5"/>
	
		<ellipse transform="matrix(0.3144 -0.9493 0.9493 0.3144 -52.6895 508.0431)" class="st9" cx="325.4" cy="290.5" rx="93.5" ry="24.8"/>
</g>
<g>
	<text transform="matrix(1 0 0 1 1946.5712 373.937)" class="st1 st5 st10">.</text>
</g>
</svg>
